<?xml version="1.0" encoding="UTF-8" standalone="no"?>
<svg width="22px" height="23px" viewBox="0 0 22 23" version="1.1" xmlns="http://www.w3.org/2000/svg" xmlns:xlink="http://www.w3.org/1999/xlink">
    <!-- Generator: sketchtool 41 (35326) - http://www.bohemiancoding.com/sketch -->
    <title>EB2CEBC2-68D8-44A4-9ED6-4B00941A50C7</title>
    <desc>Created with sketchtool.</desc>
    <defs></defs>
    <g id="Page-1" stroke="none" stroke-width="1" fill="none" fill-rule="evenodd">
        <g id="Status" transform="translate(-1031.000000, -34.000000)" fill="#FFFFFF">
            <g id="alarm" transform="translate(1031.000000, 33.413793)">
                <path d="M10.8471537,20.6806597 C6.65365143,20.6806597 3.25414612,17.2694319 3.25414612,13.0614693 C3.25414612,8.8535066 6.65365143,5.44227886 10.8471537,5.44227886 C15.0406561,5.44227886 18.4401614,8.8535066 18.4401614,13.0614693 C18.4401614,17.2694319 15.0406561,20.6806597 10.8471537,20.6806597 L10.8471537,20.6806597 Z M10.8471537,3.26536732 C5.45550791,3.26536732 1.08471537,7.65123155 1.08471537,13.0614693 C1.08471537,18.471707 5.45550791,22.8575712 10.8471537,22.8575712 C16.2387996,22.8575712 20.6095921,18.471707 20.6095921,13.0614693 C20.6095921,7.65123155 16.2387996,3.26536732 10.8471537,3.26536732 L10.8471537,3.26536732 Z M11.3895114,7.6191904 L9.76243837,7.6191904 L9.76243837,14.149925 L14.9148364,17.252024 L15.7283729,15.9132234 L11.3895114,13.3335832 L11.3895114,7.6191904 L11.3895114,7.6191904 Z M6.3781264,2.6014093 L4.98969072,0.936071964 L0,5.12662669 L1.39928283,6.79196402 L6.3781264,2.6014093 L6.3781264,2.6014093 Z M21.6943075,5.13751124 L16.7046168,0.936071964 L15.3053339,2.6014093 L20.2950247,6.80284858 L21.6943075,5.13751124 L21.6943075,5.13751124 Z" id="Shape"></path>
            </g>
        </g>
    </g>
</svg>