<?xml version="1.0" encoding="UTF-8" standalone="no"?>
<svg width="10px" height="17px" viewBox="0 0 10 17" version="1.1" xmlns="http://www.w3.org/2000/svg" xmlns:xlink="http://www.w3.org/1999/xlink">
    <!-- Generator: sketchtool 41.2 (35397) - http://www.bohemiancoding.com/sketch -->
    <title>F8804506-2A78-4EBB-B841-FCB8AA6EFD0A</title>
    <desc>Created with sketchtool.</desc>
    <defs></defs>
    <g id="Page-1" stroke="none" stroke-width="1" fill="none" fill-rule="evenodd">
        <g id="Day_dark" transform="translate(-423.000000, -161.000000)" fill="#FFFFFF">
            <g id="angle-left" transform="translate(423.000000, 161.000000)">
                <path d="M9.743304,1.389509 C9.743304,1.534598 9.6875,1.662946 9.575893,1.774553 L2.996652,8.353795 L9.575893,14.933036 C9.6875,15.044643 9.743304,15.172991 9.743304,15.31808 C9.743304,15.46317 9.6875,15.591518 9.575893,15.703125 L8.73884,16.540179 C8.627232,16.651786 8.498884,16.707589 8.353795,16.707589 C8.208706,16.707589 8.080357,16.651786 7.96875,16.540179 L0.167411,8.738839 C0.055804,8.627232 0,8.498884 0,8.353795 C0,8.208705 0.055804,8.080357 0.167411,7.96875 L7.96875,0.167411 C8.080357,0.055803 8.208706,0 8.353795,0 C8.498884,0 8.627232,0.055803 8.73884,0.167411 L9.575893,1.004464 C9.6875,1.116071 9.743304,1.24442 9.743304,1.389509 Z" id="Shape"></path>
            </g>
        </g>
    </g>
</svg>