<?xml version="1.0" encoding="UTF-8" standalone="no"?>
<svg width="7px" height="10px" viewBox="0 0 7 10" version="1.1" xmlns="http://www.w3.org/2000/svg" xmlns:xlink="http://www.w3.org/1999/xlink">
    <!-- Generator: sketchtool 41.2 (35397) - http://www.bohemiancoding.com/sketch -->
    <title>81BCC04A-50FF-4F8F-A41E-FB7C245DF609</title>
    <desc>Created with sketchtool.</desc>
    <defs></defs>
    <g id="Page-1" stroke="none" stroke-width="1" fill="none" fill-rule="evenodd">
        <g id="Day_1360x660" transform="translate(-1270.000000, -28.000000)" fill="#24476F">
            <g id="angle-left-copy" transform="translate(1273.500000, 33.000000) scale(-1, 1) translate(-1273.500000, -33.000000) translate(1270.000000, 28.000000)">
                <path d="M7,0.831663384 C7,0.918503561 6.95990806,0.995323742 6.87972489,1.06212392 L2.15292102,5.0000003 L6.87972489,8.93787608 C6.95990806,9.00467626 7,9.08149644 7,9.16833662 C7,9.25517739 6.95990806,9.33199757 6.87972489,9.39879776 L6.27835075,9.89980003 C6.19816686,9.96660021 6.10595625,10 6.00171821,10 C5.89748016,10 5.80526883,9.96660021 5.72508566,9.89980003 L0.120275114,5.23046084 C0.0400919442,5.16366066 0,5.08684048 0,5.0000003 C0,4.91315952 0.0400919442,4.83633934 0.120275114,4.76953916 L5.72508566,0.100200574 C5.80526883,0.0333997922 5.89748016,0 6.00171821,0 C6.10595625,0 6.19816686,0.0333997922 6.27835075,0.100200574 L6.87972489,0.601202244 C6.95990806,0.668002427 7,0.744823206 7,0.831663384 Z" id="Shape"></path>
            </g>
        </g>
    </g>
</svg>