<?xml version="1.0" encoding="UTF-8" standalone="no"?>
<svg width="30px" height="30px" viewBox="0 0 30 30" version="1.1" xmlns="http://www.w3.org/2000/svg" xmlns:xlink="http://www.w3.org/1999/xlink">
    <!-- Generator: sketchtool 41 (35326) - http://www.bohemiancoding.com/sketch -->
    <title>B613AC6A-B564-4E09-818D-AF6B30C1723E</title>
    <desc>Created with sketchtool.</desc>
    <defs></defs>
    <g id="Symbols" stroke="none" stroke-width="1" fill="none" fill-rule="evenodd">
        <g id="Card_done" transform="translate(-775.000000, -17.000000)" fill="#A9D1FF">
            <g id="ic_Play_light" transform="translate(760.000000, 2.000000)">
                <g id="play-circle-outline" transform="translate(15.000000, 15.000000)">
                    <path d="M15,28.5 C7.558125,28.5 1.5,22.441875 1.5,15 C1.5,7.558125 7.558125,1.5 15,1.5 C22.441875,1.5 28.5,7.558125 28.5,15 C28.5,22.441875 22.441875,28.5 15,28.5 L15,28.5 Z M15,6.66133815e-16 C6.71572875,-2.66453526e-15 6.66133815e-16,6.71572875 0,15 C-1.99840144e-15,18.9782473 1.58035261,22.793556 4.39339828,25.6066017 C7.20644396,28.4196474 11.0217527,30 15,30 C18.9782473,30 22.793556,28.4196474 25.6066017,25.6066017 C28.4196474,22.793556 30,18.9782473 30,15 C30,11.0217527 28.4196474,7.20644396 25.6066017,4.39339828 C22.793556,1.58035261 18.9782473,3.33066907e-16 15,0 L15,6.66133815e-16 Z M17.8015956,17.3988033 C19.5680256,16.0739808 19.5739232,13.9304424 17.8015956,12.6011967 L15.1984044,10.6488033 C13.4319744,9.32398083 12,10.0426958 12,12.2456504 L12,17.7543496 C12,19.9610864 13.4260768,20.6804424 15.1984044,19.3511967 L17.8015956,17.3988033 Z" id="Shape"></path>
                </g>
            </g>
        </g>
    </g>
</svg>