<?xml version="1.0" encoding="UTF-8" standalone="no"?>
<svg width="16px" height="12px" viewBox="0 0 16 12" version="1.1" xmlns="http://www.w3.org/2000/svg" xmlns:xlink="http://www.w3.org/1999/xlink">
    <!-- Generator: sketchtool 41.2 (35397) - http://www.bohemiancoding.com/sketch -->
    <title>DE9FE4E7-26FF-45B1-A5FA-405139F72F8D</title>
    <desc>Created with sketchtool.</desc>
    <defs></defs>
    <g id="Page-1" stroke="none" stroke-width="1" fill="none" fill-rule="evenodd">
        <g id="Day_dark" transform="translate(-425.000000, -789.000000)" fill="#1C3D65">
            <g id="Group-24" transform="translate(425.000000, 787.000000)">
                <g id="export-copy" transform="translate(0.000000, 2.000000)">
                    <path d="M16,6 L13.0909091,3 L13.0909091,5.25 L6.54545455,5.25 L6.54545455,6.75 L13.0909091,6.75 L13.0909091,9 L16,6 Z M0,10.5 L0,1.5 C0,0.6675 0.654545455,0 1.45454545,0 L10.1818182,0 C10.9851415,0 11.6363636,0.671572875 11.6363636,1.5 L11.6363636,3.75 L10.1818182,3.75 L10.1818182,1.5 L1.45454545,1.5 L1.45454545,10.5 L10.1818182,10.5 L10.1818182,8.25 L11.6363636,8.25 L11.6363636,10.5 C11.6363636,11.3284271 10.9851415,12 10.1818182,12 L1.45454545,12 C0.651222182,12 1.61486985e-16,11.3284271 0,10.5 L0,10.5 Z" id="Shape"></path>
                </g>
            </g>
        </g>
    </g>
</svg>