<?xml version="1.0" encoding="UTF-8" standalone="no"?>
<svg width="30px" height="46px" viewBox="0 0 30 46" version="1.1" xmlns="http://www.w3.org/2000/svg" xmlns:xlink="http://www.w3.org/1999/xlink">
    <!-- Generator: sketchtool 41 (35326) - http://www.bohemiancoding.com/sketch -->
    <title>DF4BA06D-0321-44E8-8BB1-6390D1D3AFFB</title>
    <desc>Created with sketchtool.</desc>
    <defs></defs>
    <g id="Symbols" stroke="none" stroke-width="1" fill="none" fill-rule="evenodd">
        <g id="TunaTimer" transform="translate(-75.000000, -5.000000)">
            <g id="Group-3" transform="translate(75.000000, 5.000000)">
                <path d="M6.06522839,38.1387998 C2.59646475,37.3832334 0,34.3098717 0,30.6334056 C0,38.8697363 6.51566679,45.5926143 14.700495,45.9821672 C14.6639653,45.9526864 14.6277116,45.9228806 14.5917383,45.8927543 C12.2187238,45.4055027 10.4347826,43.3155773 10.4347826,40.8112798 C10.4347826,39.0516 11.3155799,37.496511 12.6626378,36.5582714 C12.6669342,36.549798 12.671246,36.5413335 12.675573,36.532878 L12.675573,36.532878 C11.3350093,37.646521 9.60907805,38.3167028 7.72575251,38.3167028 C7.51696543,38.3167028 7.31011275,38.3084662 7.10550508,38.2923019 C7.16263884,39.0235464 7.31193531,39.7290776 7.54185509,40.3974194 C6.96309495,39.709903 6.46594639,38.9521173 6.06522839,38.1387998 Z" id="Combined-Shape-Copy" fill="#FFFFFF" transform="translate(7.350247, 38.307786) scale(1, -1) translate(-7.350247, -38.307786) "></path>
                <path d="M17.3578595,9.41469125e-14 L28.0477158,9.41469125e-14 L27.9880637,0.0332705932 C26.6384997,0.238370234 25.3635407,0.63650264 24.3036181,1.22766781 C23.6253895,1.60594553 23.0888708,2.03333105 22.6940621,2.48930308 C21.1088397,1.35245998 19.3052677,0.497990975 17.3578595,-5.82867088e-16 Z" id="Combined-Shape-Copy-12" fill="#FFFFFF"></path>
                <path d="M21.0172589,22.4078894 C20.9503475,21.8404801 20.8212689,21.291973 20.6369795,20.7692865 L18.3771937,23.0290723 L18.5013174,23.0287303 C19.1885225,22.6318307 19.9870602,22.4045613 20.8389728,22.4045613 C20.8986703,22.4045613 20.9581056,22.4056773 21.0172589,22.4078894 Z" id="Combined-Shape-Copy-13" fill="#FFFFFF"></path>
                <path d="M27.9923349,21.0464043 L29.9463486,23.000418 L29.8869676,23.0005816 C29.2123836,22.6231641 28.4338093,22.4078864 27.6046764,22.4078864 C27.5331649,22.4078864 27.4620294,22.4094878 27.3913043,22.4126565 C27.6120205,21.9684257 27.8127533,21.5126211 27.9923349,21.0464043 Z" id="Combined-Shape-Copy-14" fill="#FFFFFF"></path>
                <path d="M10.8361204,0.194194656 C10.8395439,0.195335231 10.8429663,0.19647811 10.8463877,0.197623292 C11.65529,0.0675856497 12.4852244,0 13.3310315,0 C13.4652175,0 13.5990041,0.00170108743 13.7323705,0.00508276121 L13.7323693,0.00508272941 M10.8495705,0.194194656 C6.63925441,0.873938356 2.99966731,3.24577283 0.659276072,6.58523435 C0.621468255,6.89440917 0.602006689,7.20921424 0.602006689,7.52853983 C0.602006689,11.7494582 4.00236159,15.1805455 8.22742475,15.260309 L8.22742475,15.2617286 L13.7635618,15.2617286 C18.0268151,15.2979984 21.4715719,18.7462411 21.4715719,22.9946285 C21.4715719,26.9822295 18.4367463,30.2649043 14.5387986,30.6828834 C22.5143359,30.0765571 28.7959866,23.4485822 28.7959866,15.3615116 C28.7959866,7.00822458 22.0939603,0.211677619 13.7458207,3.17974095e-08 L13.7458194,0" id="Combined-Shape-Copy-15" fill="#FFFFFF"></path>
                <path d="M15.9546893,9.0802603 C20.3465068,10.752685 23.4648812,14.9842353 23.4648812,19.9401186 C23.4648812,24.7913154 20.4768584,28.9484572 16.2312812,30.6905851 C20.3616154,28.9748984 23.2642123,24.9193435 23.2642123,20.1895763 C23.2642123,15.316626 20.1832163,11.1593265 15.8528428,9.53923108 C15.8913526,9.38797834 15.9253517,9.23493812 15.9546893,9.0802603 Z" id="Combined-Shape-Copy-16" fill="#4990E2"></path>
                <path d="M15.8662917,9.18004338 C16.0072959,9.21718242 16.147188,9.25703976 16.2859081,9.29955559 C15.6293892,12.994698 12.3846386,15.8014924 8.48070366,15.8014924 C6.64529148,15.8014924 4.95558247,15.1810912 3.61204043,14.1396508 C3.65336715,14.0709821 3.69543042,14.0028023 3.7382194,13.935122 C5.01302731,14.8579495 6.58260277,15.4023601 8.28003477,15.4023601 C12.0445266,15.4023601 15.180163,12.7247055 15.8662917,9.18004338 Z" id="Combined-Shape-Copy-17" fill="#4990E2"></path>
                <ellipse id="Oval-6-Copy-2" fill="#4990E2" cx="8.1270903" cy="5.78741866" rx="1.00334448" ry="0.997830803"></ellipse>
            </g>
        </g>
    </g>
</svg>