<?xml version="1.0" encoding="UTF-8" standalone="no"?>
<svg width="18px" height="18px" viewBox="0 0 18 18" version="1.1" xmlns="http://www.w3.org/2000/svg" xmlns:xlink="http://www.w3.org/1999/xlink">
    <!-- Generator: sketchtool 41.2 (35397) - http://www.bohemiancoding.com/sketch -->
    <title>F0FCBCA0-4F91-44FD-9EF0-3B433A5317F0</title>
    <desc>Created with sketchtool.</desc>
    <defs></defs>
    <g id="Page-1" stroke="none" stroke-width="1" fill="none" fill-rule="evenodd">
        <g id="Day_dark" transform="translate(-1187.000000, -440.000000)" fill="#F6A623">
            <g id="Group-2" transform="translate(1187.000000, 440.000000)">
                <path d="M9,18 C13.9705627,18 18,13.9705627 18,9 C18,4.02943725 13.9705627,0 9,0 C4.02943725,0 0,4.02943725 0,9 C0,13.9705627 4.02943725,18 9,18 Z M9,17.1 C13.4735065,17.1 17.1,13.4735065 17.1,9 C17.1,4.52649353 13.4735065,0.9 9,0.9 C4.52649353,0.9 0.9,4.52649353 0.9,9 C0.9,13.4735065 4.52649353,17.1 9,17.1 Z" id="Combined-Shape"></path>
                <g id="Group" transform="translate(6.300000, 6.000000)">
                    <rect id="Rectangle-29" x="0" y="0" width="1.2" height="6" rx="0.6"></rect>
                    <rect id="Rectangle-29-Copy" x="4.2" y="0" width="1.2" height="6" rx="0.6"></rect>
                </g>
            </g>
        </g>
    </g>
</svg>