<?xml version="1.0" encoding="UTF-8" standalone="no"?>
<svg width="18px" height="18px" viewBox="0 0 18 18" version="1.1" xmlns="http://www.w3.org/2000/svg" xmlns:xlink="http://www.w3.org/1999/xlink">
    <!-- Generator: sketchtool 41.2 (35397) - http://www.bohemiancoding.com/sketch -->
    <title>D527F174-A334-468D-A7C5-CD197AB6B8BB</title>
    <desc>Created with sketchtool.</desc>
    <defs></defs>
    <g id="Page-1" stroke="none" stroke-width="1" fill="none" fill-rule="evenodd" opacity="0.402985075">
        <g id="Day_dark" transform="translate(-1187.000000, -440.000000)" fill="#A9D1FF">
            <g id="ic_Play_light" transform="translate(1187.000000, 440.000000)">
                <g id="play-circle-outline">
                    <path d="M9,17.1 C4.534875,17.1 0.9,13.465125 0.9,9 C0.9,4.534875 4.534875,0.9 9,0.9 C13.465125,0.9 17.1,4.534875 17.1,9 C17.1,13.465125 13.465125,17.1 9,17.1 L9,17.1 Z M9,3.99680289e-16 C4.02943725,-1.59872116e-15 3.99680289e-16,4.02943725 0,9 C-1.19904087e-15,11.3869484 0.948211563,13.6761336 2.63603897,15.363961 C4.32386638,17.0517884 6.61305159,18 9,18 C11.3869484,18 13.6761336,17.0517884 15.363961,15.363961 C17.0517884,13.6761336 18,11.3869484 18,9 C18,6.61305159 17.0517884,4.32386638 15.363961,2.63603897 C13.6761336,0.948211563 11.3869484,1.99840144e-16 9,0 L9,3.99680289e-16 Z M12.6,9 L7.2,4.95 L7.2,13.05 L12.6,9 Z" id="Shape"></path>
                </g>
            </g>
        </g>
    </g>
</svg>