<?xml version="1.0" encoding="UTF-8" standalone="no"?>
<svg width="30px" height="30px" viewBox="0 0 30 30" version="1.1" xmlns="http://www.w3.org/2000/svg" xmlns:xlink="http://www.w3.org/1999/xlink">
    <!-- Generator: sketchtool 41 (35326) - http://www.bohemiancoding.com/sketch -->
    <title>43F08878-08FC-4E6C-AF3E-281A57AC7A62</title>
    <desc>Created with sketchtool.</desc>
    <defs></defs>
    <g id="Symbols" stroke="none" stroke-width="1" fill="none" fill-rule="evenodd">
        <g id="ic_start_new" transform="translate(-15.000000, -15.000000)" fill="#F6A623">
            <g id="Group-8" transform="translate(15.000000, 15.000000)">
                <g id="Group-2-Copy">
                    <path d="M15,30 C23.2842712,30 30,23.2842712 30,15 C30,6.71572875 23.2842712,0 15,0 C6.71572875,0 0,6.71572875 0,15 C0,23.2842712 6.71572875,30 15,30 Z M15,28.5 C22.4558441,28.5 28.5,22.4558441 28.5,15 C28.5,7.54415588 22.4558441,1.5 15,1.5 C7.54415588,1.5 1.5,7.54415588 1.5,15 C1.5,22.4558441 7.54415588,28.5 15,28.5 Z" id="Combined-Shape"></path>
                    <g id="Group" transform="translate(10.500000, 10.000000)">
                        <rect id="Rectangle-29" x="0" y="0" width="2" height="10" rx="1"></rect>
                    </g>
                </g>
                <path d="M20.8015956,17.4146028 C22.5680256,16.0897803 22.5739232,13.9462419 20.8015956,12.6169962 L18.1984044,10.6646028 C16.4319744,9.33978031 15,10.0584953 15,12.2614499 L15,17.7701491 C15,19.9768859 16.4260768,20.6962419 18.1984044,19.3669962 L20.8015956,17.4146028 Z" id="Shape"></path>
            </g>
        </g>
    </g>
</svg>