<?xml version="1.0" encoding="UTF-8" standalone="no"?>
<svg width="22px" height="22px" viewBox="0 0 22 22" version="1.1" xmlns="http://www.w3.org/2000/svg" xmlns:xlink="http://www.w3.org/1999/xlink">
    <!-- Generator: sketchtool 41 (35326) - http://www.bohemiancoding.com/sketch -->
    <title>65B57921-CAB2-44B7-A6D8-437998858A87</title>
    <desc>Created with sketchtool.</desc>
    <defs></defs>
    <g id="Page-1" stroke="none" stroke-width="1" fill="none" fill-rule="evenodd">
        <g id="Status" transform="translate(-873.000000, -26.000000)" fill="#FFFFFF">
            <g id="+" transform="translate(873.000000, 26.000000)">
                <path d="M12,10 L12,5 L10,5 L10,10 L5,10 L5,12 L10,12 L10,17 L12,17 L12,12 L17,12 L17,10 L12,10 Z" id="Combined-Shape"></path>
                <path d="M11,22 C17.0751322,22 22,17.0751322 22,11 C22,4.92486775 17.0751322,0 11,0 C4.92486775,0 0,4.92486775 0,11 C0,17.0751322 4.92486775,22 11,22 Z M11,20 C15.9705627,20 20,15.9705627 20,11 C20,6.02943725 15.9705627,2 11,2 C6.02943725,2 2,6.02943725 2,11 C2,15.9705627 6.02943725,20 11,20 Z" id="Combined-Shape"></path>
            </g>
        </g>
    </g>
</svg>