<?xml version="1.0" encoding="UTF-8" standalone="no"?>
<svg width="16px" height="14px" viewBox="0 0 16 14" version="1.1" xmlns="http://www.w3.org/2000/svg" xmlns:xlink="http://www.w3.org/1999/xlink">
    <!-- Generator: sketchtool 41 (35326) - http://www.bohemiancoding.com/sketch -->
    <title>4ABC03D3-1AC5-4859-BF62-A53DA598A8D4</title>
    <desc>Created with sketchtool.</desc>
    <defs></defs>
    <g id="Page-1" stroke="none" stroke-width="1" fill="none" fill-rule="evenodd">
        <g id="Report-Month" transform="translate(-1190.000000, -218.000000)" fill="#9B9B9B">
            <path d="M1202.8,218 L1193.2,218 L1193.2,221.111111 L1202.8,221.111111 L1202.8,218 Z M1203.6,225 C1203.15817,225 1202.8,224.651777 1202.8,224.222222 C1202.8,223.792667 1203.15817,223.444444 1203.6,223.444444 C1204.04183,223.444444 1204.4,223.792667 1204.4,224.222222 C1204.4,224.651777 1204.04183,225 1203.6,225 L1203.6,225 Z M1201.2,230.444444 L1194.8,230.444444 L1194.8,226.555556 L1201.2,226.555556 L1201.2,230.444444 Z M1203.6,221.888889 L1192.4,221.888889 C1191.07452,221.888889 1190,222.933558 1190,224.222222 L1190,228.888889 L1193.2,228.888889 L1193.2,232 L1202.8,232 L1202.8,228.888889 L1206,228.888889 L1206,224.222222 C1206,222.933558 1204.92548,221.888889 1203.6,221.888889 L1203.6,221.888889 Z" id="Shape"></path>
        </g>
    </g>
</svg>