<?xml version="1.0" encoding="UTF-8" standalone="no"?>
<svg width="16px" height="14px" viewBox="0 0 16 14" version="1.1" xmlns="http://www.w3.org/2000/svg" xmlns:xlink="http://www.w3.org/1999/xlink">
    <!-- Generator: sketchtool 41.2 (35397) - http://www.bohemiancoding.com/sketch -->
    <title>11092112-4705-48E6-BA49-5D677DEB910E</title>
    <desc>Created with sketchtool.</desc>
    <defs></defs>
    <g id="Page-1" stroke="none" stroke-width="1" fill="none" fill-rule="evenodd">
        <g id="Day_dark" transform="translate(-425.000000, -759.000000)" fill="#1C3D65">
            <g id="Group-28" transform="translate(425.000000, 758.000000)">
                <path d="M12.8,1 L3.2,1 L3.2,4.11111111 L12.8,4.11111111 L12.8,1 Z M13.6,8 C13.1581722,8 12.8,7.65177703 12.8,7.22222222 C12.8,6.79266742 13.1581722,6.44444444 13.6,6.44444444 C14.0418278,6.44444444 14.4,6.79266742 14.4,7.22222222 C14.4,7.65177703 14.0418278,8 13.6,8 L13.6,8 Z M11.2,13.4444444 L4.8,13.4444444 L4.8,9.55555556 L11.2,9.55555556 L11.2,13.4444444 Z M13.6,4.88888889 L2.4,4.88888889 C1.0745166,4.88888889 3.55271368e-16,5.93355781 0,7.22222222 L0,11.8888889 L3.2,11.8888889 L3.2,15 L12.8,15 L12.8,11.8888889 L16,11.8888889 L16,7.22222222 C16,5.93355781 14.9254834,4.88888889 13.6,4.88888889 L13.6,4.88888889 Z" id="Shape"></path>
            </g>
        </g>
    </g>
</svg>