<?xml version="1.0" encoding="UTF-8" standalone="no"?>
<svg width="8px" height="10px" viewBox="0 0 8 10" version="1.1" xmlns="http://www.w3.org/2000/svg" xmlns:xlink="http://www.w3.org/1999/xlink">
    <!-- Generator: sketchtool 41 (35326) - http://www.bohemiancoding.com/sketch -->
    <title>1E710EE0-6E95-46BB-A5E5-4C62C270330D</title>
    <desc>Created with sketchtool.</desc>
    <defs></defs>
    <g id="Symbols" stroke="none" stroke-width="1" fill="none" fill-rule="evenodd">
        <g id="icon_projekt" fill="#4A4A4A">
            <path d="M4.5,6 C2.82,6 2.27,6.675 2.09,7.12 C2.625,7.35 3,7.88 3,8.5 C3,9.32842712 2.32842712,10 1.5,10 C0.671572875,10 0,9.32842712 0,8.5 C4.4408921e-16,7.845 0.415,7.29 1,7.085 L1,2.915 C0.415,2.71 4.4408921e-16,2.155 4.4408921e-16,1.5 C0,0.671572875 0.671572875,2.22044605e-16 1.5,0 C2.32842712,0 3,0.671572875 3,1.5 C3,2.155 2.585,2.71 2,2.915 L2,5.56 C2.44,5.235 3.08,5 4,5 C5.335,5 5.78,4.33 5.925,3.885 C5.385,3.66 5,3.125 5,2.5 C5,1.67157288 5.67157288,1 6.5,1 C7.32842712,1 8,1.67157288 8,2.5 C8,3.17 7.56,3.75 6.955,3.93 C6.825,4.645 6.34,6 4.5,6 L4.5,6 Z M1.5,8 C1.22385763,8 1,8.22385763 1,8.5 C1,8.77614237 1.22385763,9 1.5,9 C1.77614237,9 2,8.77614237 2,8.5 C2,8.22385763 1.77614237,8 1.5,8 L1.5,8 Z M1.5,1 C1.22385763,1 1,1.22385763 1,1.5 C1,1.77614237 1.22385763,2 1.5,2 C1.77614237,2 2,1.77614237 2,1.5 C2,1.22385763 1.77614237,1 1.5,1 L1.5,1 Z M6.5,2 C6.22385763,2 6,2.22385763 6,2.5 C6,2.77614237 6.22385763,3 6.5,3 C6.77614237,3 7,2.77614237 7,2.5 C7,2.22385763 6.77614237,2 6.5,2 L6.5,2 Z" id="Shape"></path>
        </g>
    </g>
</svg>