<?xml version="1.0" encoding="UTF-8" standalone="no"?>
<svg width="18px" height="12px" viewBox="0 0 18 12" version="1.1" xmlns="http://www.w3.org/2000/svg" xmlns:xlink="http://www.w3.org/1999/xlink">
    <!-- Generator: sketchtool 41.2 (35397) - http://www.bohemiancoding.com/sketch -->
    <title>4D399A82-7577-43EB-8F3E-B080F45269ED</title>
    <desc>Created with sketchtool.</desc>
    <defs></defs>
    <g id="Page-1" stroke="none" stroke-width="1" fill="none" fill-rule="evenodd">
        <g id="Day_dark" transform="translate(-252.000000, -531.000000)" fill="#FFFFFF">
            <g id="toggle-off" transform="translate(252.000000, 531.000000)">
                <path d="M9.9183672,5.51020423 C9.9183672,4.9132656 9.80213657,4.3435908 9.5696748,3.80117983 C9.33721303,3.25876937 9.02295926,2.78954074 8.62691349,2.39349497 C8.2308672,1.9974492 7.76163909,1.68319543 7.21922811,1.45073366 C6.67681766,1.21827189 6.10714286,1.10204074 5.51020423,1.10204074 C4.91326509,1.10204074 4.3435908,1.21827189 3.80117983,1.45073366 C3.25876937,1.68319543 2.78954074,1.9974492 2.39349497,2.39349497 C1.9974492,2.78954074 1.68319491,3.25876937 1.45073366,3.80117983 C1.21827189,4.3435908 1.10204074,4.9132656 1.10204074,5.51020423 C1.10204074,6.10714286 1.21827189,6.67681766 1.45073366,7.21922863 C1.68319491,7.76163909 1.9974492,8.2308672 2.39349497,8.62691349 C2.78954074,9.02295926 3.25876937,9.33721303 3.80117983,9.5696748 C4.3435908,9.80213657 4.91326509,9.9183672 5.51020423,9.9183672 C6.10714286,9.9183672 6.67681766,9.80213657 7.21922811,9.5696748 C7.76163909,9.33721303 8.2308672,9.02295926 8.62691349,8.62691349 C9.02295926,8.2308672 9.33721303,7.76163909 9.5696748,7.21922863 C9.80213657,6.67681766 9.9183672,6.10714286 9.9183672,5.51020423 Z M16.5306122,5.51020423 C16.5306122,4.9132656 16.4143815,4.3435908 16.1819198,3.80117983 C15.949458,3.25876937 15.6352042,2.78954074 15.2391579,2.39349497 C14.8431122,1.9974492 14.3738841,1.68319543 13.8314731,1.45073366 C13.2890626,1.21827189 12.7193878,1.10204074 12.1224492,1.10204074 L8.79910714,1.10204074 C9.48214286,1.61862274 10.0231185,2.26147989 10.4220345,3.03061217 C10.8209505,3.79974497 11.0204079,4.62627566 11.0204079,5.51020423 C11.0204079,6.3941328 10.8209505,7.22066349 10.4220345,7.98979577 C10.0231185,8.75892857 9.48214286,9.40178571 8.79910714,9.9183672 L12.1224492,9.9183672 C12.7193878,9.9183672 13.2890626,9.80213657 13.8314731,9.5696748 C14.3738841,9.33721303 14.8431122,9.02295926 15.2391579,8.62691349 C15.6352042,8.2308672 15.949458,7.76163909 16.1819198,7.21922863 C16.4143815,6.67681766 16.5306122,6.10714286 16.5306122,5.51020423 Z M17.6326529,5.51020423 C17.6326529,6.25637777 17.4862882,6.96954703 17.1935589,7.64971303 C16.900829,8.32987903 16.5090878,8.91533829 16.0183353,9.4060908 C15.5275827,9.89684331 14.9421235,10.2885845 14.261958,10.5813139 C13.581792,10.8740433 12.8686222,11.0204085 12.1224492,11.0204085 L5.51020423,11.0204085 C4.76403069,11.0204085 4.05086091,10.8740433 3.37069491,10.5813139 C2.69052943,10.2885845 2.10507017,9.89684331 1.61431766,9.4060908 C1.12356514,8.91533829 0.731823943,8.32987903 0.439094571,7.64971303 C0.146364686,6.96954703 0,6.25637777 0,5.51020423 C0,4.76403069 0.146364686,4.05086091 0.439094571,3.37069543 C0.731823943,2.69052943 1.12356514,2.10507017 1.61431766,1.61431766 C2.10507017,1.12356514 2.69052943,0.731823943 3.37069491,0.439094571 C4.05086091,0.146364686 4.76403069,0 5.51020423,0 L12.1224492,0 C12.8686222,0 13.581792,0.146364686 14.261958,0.439094571 C14.9421235,0.731823943 15.5275827,1.12356514 16.0183353,1.61431766 C16.5090878,2.10507017 16.900829,2.69052943 17.1935589,3.37069543 C17.4862882,4.05086091 17.6326529,4.76403069 17.6326529,5.51020423 Z" id="Shape"></path>
            </g>
        </g>
    </g>
</svg>