<?xml version="1.0" encoding="UTF-8" standalone="no"?>
<svg width="37px" height="51px" viewBox="0 0 37 51" version="1.1" xmlns="http://www.w3.org/2000/svg" xmlns:xlink="http://www.w3.org/1999/xlink">
    <!-- Generator: Sketch 41.2 (35397) - http://www.bohemiancoding.com/sketch -->
    <title>Combined Shape</title>
    <desc>Created with Sketch.</desc>
    <defs>
        <linearGradient x1="77.6355866%" y1="-13.0485368%" x2="5.84052319%" y2="94.6018917%" id="linearGradient-1">
            <stop stop-color="#8CD6FF" offset="0%"></stop>
            <stop stop-color="#95DAFF" offset="100%"></stop>
        </linearGradient>
        <path d="M92.1557183,35.2571141 C91.3443861,35.4618021 90.507455,35.6026534 89.6506474,35.6739767 C89.6309287,35.6901622 89.6112921,35.706443 89.5917383,35.7228186 C87.2187238,36.2100701 85.4347826,38.2999955 85.4347826,40.804293 C85.4347826,42.5639728 86.3155799,44.1190619 87.6626378,45.0573014 C87.6669342,45.0657749 87.671246,45.0742394 87.675573,45.0826948 C86.3350093,43.9690518 84.6090781,43.29887 82.7257525,43.29887 C82.5169654,43.29887 82.3101128,43.3071066 82.1055051,43.323271 C82.1626388,42.5920264 82.3119353,41.8864953 82.5418551,41.2181535 C81.963095,41.9056698 81.4659464,42.6634555 81.0652284,43.476773 C77.5964648,44.2323394 75,47.3057012 75,50.9821672 C75,42.7458365 81.5156668,36.0229586 89.700495,35.6334056 C89.6856967,35.6453484 89.6709437,35.6573445 89.6562363,35.6693937 C93.4975318,35.1987505 96.4715719,31.9420931 96.4715719,27.9946285 C96.4715719,23.7462411 93.0268151,20.2979984 88.7635618,20.2617286 L86.3707383,20.261115 C88.7848087,19.3206229 90.6220436,17.2366384 91.2086902,14.6792118 C95.3510275,16.3894763 98.2642123,20.4511904 98.2642123,25.1895763 C98.2642123,29.5579853 95.7881944,33.3512673 92.1557183,35.2571141 L92.1557183,35.2571141 Z M92.1785643,35.2513317 C98.8575085,33.5554553 103.795987,27.5320359 103.795987,20.3615116 C103.795987,12.0082246 97.0939603,5.21167762 88.7458207,5.00000003 L88.6864014,5.00398411 C88.5682673,5.00133278 88.4498059,5 88.3310315,5 C87.4973293,5 86.6790487,5.06566497 85.8811308,5.19207853 L86.3500173,5.16063952 L85.8361204,5.19419466 L85.8405133,5.19565967 C81.6340349,5.87734069 77.9979889,8.24816767 75.6592761,11.5852344 C75.6214683,11.8944092 75.6020067,12.2092142 75.6020067,12.5285398 C75.6020067,16.7494582 79.0023616,20.1805455 83.2274247,20.260309 L84.7643,20.2607031 C87.8457229,19.6643726 90.2726946,17.246671 90.8662917,14.1800434 C90.8880578,14.1857764 90.9097974,14.1915741 90.9315103,14.1974364 C90.9395339,14.1584843 90.947261,14.1194248 90.9546893,14.0802603 C95.3465068,15.752685 98.4648812,19.9842353 98.4648812,24.9401186 C98.4648812,29.4218879 95.9146174,33.3112844 92.1785643,35.2513317 L92.1785643,35.2513317 Z M83.1270903,11.7852495 C83.6812222,11.7852495 84.1304348,11.3385054 84.1304348,10.7874187 C84.1304348,10.2363319 83.6812222,9.78958785 83.1270903,9.78958785 C82.5729584,9.78958785 82.1237458,10.2363319 82.1237458,10.7874187 C82.1237458,11.3385054 82.5729584,11.7852495 83.1270903,11.7852495 Z M103.047716,5 L102.988064,5.03327059 C101.6385,5.23837023 100.363541,5.63650264 99.3036181,6.22766781 C98.6253895,6.60594553 98.0888708,7.03333105 97.6940621,7.48930308 C96.1088397,6.35245998 94.3052677,5.49799098 92.3578595,5 L103.047716,5 Z M96.0172589,27.4078894 C95.9503475,26.8404801 95.8212689,26.291973 95.6369795,25.7692865 L93.3771937,28.0290723 L93.5013174,28.0287303 C94.1885225,27.6318307 94.9870602,27.4045613 95.8389728,27.4045613 C95.8986703,27.4045613 95.9581056,27.4056773 96.0172589,27.4078894 L96.0172589,27.4078894 Z M102.992335,26.0464043 L104.946349,28.000418 L104.886968,28.0005816 C104.212384,27.6231641 103.433809,27.4078864 102.604676,27.4078864 C102.533165,27.4078864 102.462029,27.4094878 102.391304,27.4126565 C102.61202,26.9684257 102.812753,26.5126211 102.992335,26.0464043 Z" id="path-2"></path>
        <filter x="-50%" y="-50%" width="200%" height="200%" filterUnits="objectBoundingBox" id="filter-3">
            <feOffset dx="0" dy="2" in="SourceAlpha" result="shadowOffsetOuter1"></feOffset>
            <feGaussianBlur stdDeviation="2" in="shadowOffsetOuter1" result="shadowBlurOuter1"></feGaussianBlur>
            <feColorMatrix values="0 0 0 0 0   0 0 0 0 0   0 0 0 0 0  0 0 0 0.5 0" type="matrix" in="shadowBlurOuter1"></feColorMatrix>
        </filter>
    </defs>
    <g id="Symbols" stroke="none" stroke-width="1" fill="none" fill-rule="evenodd">
        <g id="TunaTimer" transform="translate(-71.000000, -3.000000)">
            <g id="Combined-Shape">
                <use fill="black" fill-opacity="1" filter="url(#filter-3)" xlink:href="#path-2"></use>
                <use fill="url(#linearGradient-1)" fill-rule="evenodd" xlink:href="#path-2"></use>
            </g>
        </g>
    </g>
</svg>